<svg width="26" height="27" viewBox="0 0 26 27" fill="none" xmlns="http://www.w3.org/2000/svg">
<path d="M2.15308 7.69384C2.94019 5.99052 4.05229 4.55087 5.45386 3.3538C7.35308 1.72431 9.53159 0.743447 11.9742 0.442861C14.8433 0.0895407 17.5398 0.653798 20.0332 2.20419C20.6527 2.58915 21.2316 3.02685 21.7851 3.50146C21.9222 3.61747 21.907 3.68603 21.7902 3.80204C20.6578 4.97274 19.5253 6.14345 18.4031 7.3247C18.271 7.46181 18.2 7.45126 18.0578 7.34052C14.7671 4.70907 9.96831 5.42099 7.51558 8.90146C7.08394 9.51318 6.73354 10.1724 6.4898 10.8895C6.46948 10.9528 6.42886 11.0108 6.39839 11.0741C5.74331 10.5573 5.08315 10.0405 4.43315 9.51845C3.67144 8.912 2.90972 8.30556 2.15308 7.69384Z" fill="#E94335"/>
<path d="M6.39834 16.0205C6.6167 16.5215 6.79951 17.0436 7.07373 17.5129C8.22646 19.4746 9.87178 20.735 12.0401 21.1832C13.9952 21.5893 15.8741 21.315 17.6261 20.2973C17.687 20.2656 17.748 20.234 17.8038 20.2023C17.8343 20.234 17.8597 20.2709 17.8901 20.2973C19.2003 21.3519 20.5155 22.4066 21.8257 23.4613C21.196 24.11 20.48 24.632 19.7183 25.0855C17.5093 26.3934 15.1175 26.9207 12.5987 26.7203C9.46045 26.4672 6.75381 25.1805 4.51943 22.8602C3.53936 21.8424 2.73193 20.6928 2.14795 19.3797C2.69131 18.9473 3.23467 18.5201 3.77803 18.0877C4.65146 17.3969 5.5249 16.7113 6.39834 16.0205Z" fill="#34A853"/>
<path d="M21.8309 23.4615C20.5207 22.4068 19.2055 21.3521 17.8954 20.2975C17.8649 20.2711 17.8344 20.2342 17.809 20.2025C18.261 19.8387 18.7231 19.4854 19.0938 19.0213C19.7133 18.2514 20.1247 17.3813 20.3379 16.4057C20.3633 16.2844 20.343 16.2422 20.2262 16.2475C20.1653 16.2527 20.1094 16.2475 20.0485 16.2475C17.9766 16.2475 15.8997 16.2422 13.8278 16.2527C13.5993 16.2527 13.5485 16.1895 13.5536 15.9627C13.5637 14.4334 13.5637 12.9041 13.5536 11.3748C13.5536 11.1797 13.6043 11.127 13.7922 11.127C17.5907 11.1322 21.3891 11.1322 25.1926 11.127C25.3551 11.127 25.4211 11.1691 25.4618 11.3484C25.7715 12.7986 25.7512 14.2541 25.5633 15.7201C25.411 16.8908 25.1368 18.0246 24.7153 19.1215C24.0907 20.7404 23.1715 22.1537 21.9629 23.3666C21.9172 23.4035 21.8715 23.4299 21.8309 23.4615Z" fill="#4285F3"/>
<path d="M6.39837 16.0207C5.52493 16.7115 4.65149 17.3971 3.77806 18.0879C3.2347 18.515 2.69134 18.9475 2.14798 19.3799C1.72649 18.5678 1.45227 17.7082 1.22884 16.8223C0.802274 15.1084 0.736258 13.3682 0.969852 11.6227C1.15266 10.2516 1.53352 8.9332 2.14798 7.69922C2.9097 8.30566 3.66634 8.91738 4.42806 9.52383C5.08313 10.0459 5.73821 10.5627 6.39329 11.0795C6.28157 11.6438 6.12415 12.1975 6.07337 12.7775C5.98196 13.8322 6.07845 14.8605 6.3679 15.873C6.38821 15.9152 6.39329 15.968 6.39837 16.0207Z" fill="#FABB06"/>
</svg>
